<svg version="1.1" id="Layer_1" xmlns="http://www.w3.org/2000/svg" xmlns:xlink="http://www.w3.org/1999/xlink" x="0px" y="0px" width="100%" viewBox="0 0 5000 3000" enable-background="new 0 0 5000 3000" xml:space="preserve">

<path fill="#9AFEFD" opacity="1.000000" stroke="none" d="
M1297.683716,1472.000000 
	C1297.683838,1270.350708 1297.667480,1069.701416 1297.706665,869.052185 
	C1297.711060,846.608521 1296.117798,850.426025 1316.231445,850.411560 
	C1451.553101,850.314209 1586.874634,850.415222 1722.196289,850.325684 
	C1760.022461,850.300659 1792.930420,863.082581 1822.206787,886.677612 
	C1853.096069,911.572754 1875.887695,942.770020 1894.283447,977.455627 
	C1921.173218,1028.157227 1937.492310,1082.307251 1946.416016,1138.848022 
	C1950.713013,1166.073608 1954.209595,1193.347168 1954.393066,1220.977417 
	C1954.472412,1232.919434 1955.854858,1244.876953 1955.500610,1256.793335 
	C1954.116943,1303.328857 1949.116943,1349.443481 1937.628418,1394.684448 
	C1930.674927,1422.066650 1921.815308,1448.811890 1910.017578,1474.809570 
	C1926.517334,1495.907715 1940.968140,1518.139526 1952.781372,1542.066406 
	C1972.607300,1582.223267 1986.475464,1624.412720 1995.679688,1668.139771 
	C2002.173218,1698.988647 2007.456787,1730.078125 2008.271606,1761.685669 
	C2009.042480,1791.592041 2010.918579,1821.603760 2009.321655,1851.409180 
	C2006.133789,1910.913330 1995.606201,1969.281860 1976.150146,2025.833618 
	C1959.575562,2074.009521 1937.373291,2119.307617 1905.004883,2158.858398 
	C1880.749634,2188.495605 1852.201904,2213.242920 1815.734619,2227.350830 
	C1798.814331,2233.896729 1781.295776,2237.511963 1763.211914,2237.556396 
	C1695.884766,2237.722412 1628.552612,2237.150635 1561.231323,2237.795654 
	C1519.544189,2238.194824 1483.209473,2224.925049 1450.433472,2199.860596 
	C1421.714478,2177.898438 1399.236694,2150.468506 1380.367432,2120.086670 
	C1345.777344,2064.391602 1324.433716,2003.499146 1311.865356,1939.390381 
	C1305.607422,1907.470093 1300.647705,1875.366333 1299.663574,1842.763428 
	C1299.092041,1823.830688 1297.807861,1804.904053 1297.773682,1785.973022 
	C1297.585449,1681.648926 1297.683716,1577.324341 1297.683716,1472.000000 
M1451.546631,1494.999878 
	C1451.546631,1588.317993 1451.611694,1681.636353 1451.500366,1774.954346 
	C1451.473022,1797.920654 1451.958740,1820.768433 1456.080688,1843.488281 
	C1462.328125,1877.923950 1473.356201,1910.387207 1493.891235,1939.065552 
	C1512.156494,1964.573853 1536.004028,1979.861206 1568.514771,1979.742188 
	C1630.837280,1979.514160 1693.161621,1979.780273 1755.484375,1979.581421 
	C1767.125366,1979.544312 1778.458496,1977.555908 1789.078247,1971.860962 
	C1802.391113,1964.721924 1812.474487,1954.367432 1820.741333,1942.115845 
	C1844.982300,1906.191406 1853.059326,1865.400879 1855.585938,1823.135254 
	C1856.758667,1803.517822 1855.166260,1783.945679 1851.845825,1764.560059 
	C1845.980103,1730.316040 1835.063965,1698.133667 1811.572876,1671.631226 
	C1797.332764,1655.565552 1779.783936,1646.080322 1757.469238,1646.196899 
	C1701.812988,1646.487671 1646.153809,1646.192261 1590.496826,1646.395020 
	C1579.718262,1646.434326 1569.707886,1643.935669 1561.616455,1637.304932 
	C1553.469482,1630.628784 1545.430786,1623.186401 1539.458374,1614.608032 
	C1520.485718,1587.357544 1512.465454,1556.193237 1511.866211,1523.433594 
	C1511.079956,1480.454834 1511.652344,1437.450928 1511.702148,1394.457886 
	C1511.705078,1391.956299 1512.260010,1389.455200 1512.632446,1386.329712 
	C1516.989990,1386.329712 1520.608276,1386.329834 1524.226562,1386.329834 
	C1588.549561,1386.329712 1652.872681,1386.265381 1717.195435,1386.369507 
	C1735.825806,1386.399658 1751.467041,1380.127319 1764.248901,1366.371826 
	C1773.446167,1356.473999 1780.615479,1345.309570 1785.583618,1332.901489 
	C1805.988037,1281.940796 1807.458008,1230.155273 1790.706177,1178.014404 
	C1784.652832,1159.173340 1775.329834,1141.911133 1760.703979,1128.005615 
	C1749.695312,1117.539185 1737.202759,1111.504883 1721.467529,1111.553223 
	C1635.148804,1111.818359 1548.828857,1111.679810 1462.509399,1111.679932 
	C1459.029541,1111.679932 1455.549561,1111.680054 1451.546631,1111.680054 
	C1451.546631,1239.126587 1451.546631,1366.063110 1451.546631,1494.999878 
z" data-index="1" style="opacity: 1;"></path>
<path fill="#9AFEFD" opacity="1.000000" stroke="none" d="
M3006.609619,861.345947 
	C3063.339355,889.560730 3114.012939,925.207642 3160.529297,967.013123 
	C3218.232910,1018.872803 3267.527344,1077.905396 3311.303467,1141.767090 
	C3348.810303,1196.482300 3381.745361,1253.851562 3409.879150,1313.860718 
	C3426.368652,1349.032349 3440.890869,1385.126343 3456.296875,1420.805908 
	C3457.588135,1423.796631 3458.868896,1426.791748 3461.661621,1429.623291 
	C3461.661621,1237.062378 3461.661621,1044.501587 3461.661621,852.262939 
	C3469.729248,849.967896 3598.148682,849.331970 3614.144043,851.312073 
	C3614.608398,853.503540 3615.446533,855.967346 3615.590332,858.471008 
	C3615.838379,862.789429 3615.652100,867.132568 3615.652100,871.465332 
	C3615.659912,1322.102905 3615.668213,1772.740601 3615.676025,2223.378174 
	C3615.676270,2227.357666 3615.676025,2231.337402 3615.676025,2235.925049 
	C3613.226807,2236.558105 3611.104736,2237.581787 3608.980225,2237.585938 
	C3561.983643,2237.673828 3514.987061,2237.652588 3467.990234,2237.612549 
	C3467.067871,2237.611816 3466.145752,2237.133057 3464.336182,2236.631104 
	C3464.336182,2233.441895 3464.365479,2230.200439 3464.331299,2226.959473 
	C3464.125000,2207.315674 3464.459229,2187.646973 3463.566650,2168.033936 
	C3461.998535,2133.563232 3460.435791,2099.062744 3457.512695,2064.689941 
	C3451.497803,1993.951416 3441.809570,1923.673340 3427.721680,1854.063965 
	C3415.600098,1794.170044 3400.512451,1735.042603 3381.862305,1676.802124 
	C3364.208008,1621.671997 3343.591309,1567.712769 3319.316895,1515.201050 
	C3297.954590,1468.989014 3273.566650,1424.379028 3245.954834,1381.541382 
	C3222.689209,1345.446411 3197.001709,1311.189941 3169.052490,1278.632446 
	C3160.280029,1268.413818 3150.719971,1258.871704 3139.706299,1249.735229 
	C3139.706055,1578.715820 3139.706543,1907.696533 3139.706299,2237.004395 
	C3087.687744,2237.004395 3037.528809,2237.004395 2988.128906,2237.004395 
	C2987.116211,2236.161377 2986.815186,2235.985840 2986.622803,2235.729004 
	C2986.427979,2235.469238 2986.267090,2235.140137 2986.219238,2234.822021 
	C2986.022949,2233.517334 2985.730713,2232.205322 2985.730957,2230.895996 
	C2985.744141,1772.595703 2985.778564,1314.295410 2985.848389,855.995178 
	C2985.848389,855.408081 2986.384033,854.821045 2986.794434,853.976746 
	C2994.318604,852.994751 2999.313721,859.347839 3006.609619,861.345947 
z" data-index="2" style="opacity: 1;"></path>
<path fill="#9AFEFD" opacity="1.000000" stroke="none" d="
M4337.183594,2168.784668 
	C4344.471680,2191.597656 4351.435059,2213.684570 4358.709961,2236.759766 
	C4354.839844,2237.139893 4352.354004,2237.594971 4349.868652,2237.596924 
	C4297.539551,2237.636963 4245.209961,2237.634033 4192.880859,2237.617920 
	C4182.907715,2237.614990 4182.997070,2237.545166 4179.966797,2228.062256 
	C4159.742676,2164.781494 4139.432617,2101.528320 4119.241211,2038.237061 
	C4105.512207,1995.201172 4091.969727,1952.105835 4078.272705,1909.059692 
	C4063.366943,1862.216553 4048.368896,1815.402954 4033.429443,1768.570557 
	C4019.602051,1725.223755 4005.804932,1681.867188 3991.967529,1638.523560 
	C3991.178711,1636.053345 3990.147461,1633.660522 3989.402100,1631.689575 
	C3950.278809,1631.689575 3911.704590,1631.689575 3872.038086,1631.689575 
	C3872.038086,1833.387329 3872.038086,2034.498779 3872.038086,2236.574951 
	C3867.862793,2236.989502 3864.678467,2237.577148 3861.493164,2237.581543 
	C3816.496582,2237.644531 3771.499756,2237.643799 3726.503174,2237.619629 
	C3716.567383,2237.614258 3716.552490,2237.544678 3716.356934,2227.621338 
	C3716.291260,2224.289551 3716.311523,2220.955566 3716.311523,2217.622559 
	C3716.309814,1768.322998 3716.309814,1319.023438 3716.311523,869.723816 
	C3716.311523,865.724182 3716.496338,861.717102 3716.309570,857.726807 
	C3716.076660,852.756348 3717.999268,850.110413 3723.216064,850.354675 
	C3724.878906,850.432556 3726.548584,850.359192 3728.215088,850.359192 
	C3772.211914,850.358093 3816.208496,850.356812 3860.205322,850.359314 
	C3862.204346,850.359436 3864.212402,850.280029 3866.200195,850.439575 
	C3869.648438,850.716309 3871.767822,852.377930 3871.677246,856.149048 
	C3871.621094,858.480835 3871.665771,860.815002 3871.665527,863.148132 
	C3871.659912,1029.135620 3871.654541,1195.123169 3871.648926,1361.110596 
	C3871.648926,1365.360107 3871.648926,1369.609741 3871.648926,1374.331299 
	C3904.221924,1374.331299 3935.869385,1375.641357 3967.359375,1373.976929 
	C4001.430908,1372.176025 4030.115479,1356.494751 4055.027100,1333.501221 
	C4090.800293,1300.482910 4114.370117,1259.565552 4132.107910,1214.913574 
	C4146.877930,1177.731567 4156.583984,1139.212158 4162.482422,1099.608643 
	C4167.535156,1065.681396 4169.900391,1031.668579 4169.739746,997.395569 
	C4169.526855,952.066772 4169.699219,906.736206 4169.736816,861.406372 
	C4169.745605,850.430664 4169.805176,850.373779 4180.973145,850.367676 
	C4223.636719,850.344482 4266.299805,850.337891 4308.963379,850.388306 
	C4313.564453,850.393738 4318.165527,850.810181 4323.532715,851.073608 
	C4323.825195,854.226074 4324.321289,857.086853 4324.322754,859.947876 
	C4324.353516,920.943176 4324.957520,981.947388 4324.085449,1042.930420 
	C4323.540039,1081.061157 4319.891113,1119.049561 4314.751953,1156.920776 
	C4308.399414,1203.733521 4298.911133,1249.825928 4285.528320,1295.065186 
	C4270.791992,1344.876953 4251.756836,1392.979004 4226.577148,1438.589844 
	C4208.990723,1470.446045 4189.067871,1500.582153 4164.776855,1527.717773 
	C4157.019531,1536.383545 4148.832031,1544.664307 4140.611328,1553.364136 
	C4151.166504,1586.460571 4161.750977,1619.645996 4172.333008,1652.832520 
	C4188.873047,1704.705200 4205.394531,1756.584229 4221.956543,1808.449951 
	C4235.491699,1850.837280 4249.109375,1893.198364 4262.629395,1935.590454 
	C4284.015625,2002.646851 4305.344238,2069.721680 4326.716309,2136.782715 
	C4330.044434,2147.225098 4333.476074,2157.634033 4337.183594,2168.784668 
z" data-index="3" style="opacity: 1;"></path>
<path fill="#9AFEFD" opacity="1.000000" stroke="none" d="
M986.255005,615.778320 
	C1006.749573,643.816467 1023.720459,673.064392 1037.858154,704.034424 
	C1056.426880,744.711121 1069.754761,787.098938 1079.580200,830.593079 
	C1088.870605,871.718689 1094.687134,913.370850 1098.589844,955.401978 
	C1102.754517,1000.253296 1103.028564,1045.138794 1102.059204,1090.012695 
	C1101.084473,1135.135742 1095.651733,1179.872070 1086.660400,1224.228149 
	C1077.644653,1268.704468 1064.625122,1311.814087 1045.963135,1353.113037 
	C1026.776123,1395.574341 1001.959717,1434.493652 968.264648,1467.020020 
	C931.777100,1502.242188 889.110901,1525.754761 838.389526,1534.007324 
	C811.400940,1538.398560 784.344482,1540.291992 757.103210,1540.329102 
	C683.437622,1540.429443 609.771912,1540.364746 536.106201,1540.365356 
	C532.541321,1540.365356 528.976379,1540.365234 524.506958,1540.365234 
	C524.506958,1378.384155 524.506958,1217.611938 524.506958,1055.797607 
	C530.485229,1055.797607 536.037109,1055.872070 541.586548,1055.784912 
	C566.851257,1055.388428 592.114319,1054.761475 617.380188,1054.623413 
	C625.981750,1054.576416 634.603943,1055.564331 643.192017,1056.349365 
	C662.892395,1058.149658 677.693909,1069.425049 691.511536,1082.154419 
	C711.186401,1100.279541 724.219910,1123.074341 735.758911,1146.820801 
	C748.934021,1173.934448 756.311584,1202.859741 761.948608,1232.269409 
	C768.813538,1268.085083 775.350647,1303.963867 782.045471,1339.812256 
	C782.317505,1341.269165 782.750488,1342.695923 783.108459,1344.136719 
	C783.772888,1344.136841 784.437256,1344.136963 785.101624,1344.137085 
	C786.054077,1339.494507 787.155273,1334.876953 787.935852,1330.205688 
	C794.931152,1288.340576 801.336243,1246.355469 812.119324,1205.232300 
	C821.442444,1169.676514 833.998169,1135.518066 855.999817,1105.490112 
	C874.276794,1080.545776 897.594055,1061.782227 925.181885,1048.107422 
	C938.559448,1041.476318 951.922058,1034.814941 965.262939,1028.110596 
	C968.158569,1026.655396 971.439392,1025.674194 971.707825,1021.373596 
	C971.999146,1016.705811 970.101501,1014.249390 965.906982,1012.168945 
	C948.935303,1003.751221 932.283203,994.688110 915.296021,986.302979 
	C887.623413,972.643188 866.716187,951.689026 850.333069,926.072998 
	C825.965393,887.972412 812.118774,845.832581 804.274292,801.579163 
	C798.601990,769.579895 793.291931,737.516479 787.760132,705.492065 
	C787.103882,701.693298 786.067993,697.960083 784.656372,691.781616 
	C783.007568,695.602295 781.991394,697.108032 781.707092,698.741211 
	C775.850525,732.384399 770.417419,766.105103 764.197510,799.680237 
	C757.147400,837.736572 745.947021,874.557556 728.070557,909.043884 
	C716.809509,930.768066 702.512634,950.289368 683.415649,965.947327 
	C670.523804,976.517639 655.344910,980.813843 639.054932,981.318909 
	C619.095093,981.937622 599.117615,981.964050 579.149841,982.355103 
	C563.212769,982.667236 547.279053,983.146912 531.343445,983.537781 
	C529.385803,983.585815 527.425903,983.544312 525.659241,983.544312 
	C523.291077,976.325256 522.539429,518.649048 524.876831,504.774292 
	C530.517761,504.608856 536.400574,504.128235 542.260803,504.324432 
	C557.527405,504.835541 572.778687,506.032379 588.045898,506.243927 
	C612.372375,506.581024 636.707947,506.187592 661.037476,506.380585 
	C698.271790,506.675964 735.503540,507.301727 772.737915,507.565735 
	C781.017883,507.624481 789.299744,506.619537 797.588684,506.349457 
	C828.952271,505.327423 858.839172,510.671387 887.117981,525.166809 
	C915.491333,539.710693 938.438904,560.666260 959.679871,583.770264 
	C968.892517,593.791016 977.108826,604.727722 986.255005,615.778320 
z" data-index="4" style="opacity: 1;"></path>
<path fill="#FEFEFE" opacity="1.000000" stroke="none" d="
M1103.912354,2158.000977 
	C1104.137207,2171.305908 1104.143311,2183.633057 1104.148682,2195.960205 
	C1104.204224,2323.272461 1104.261963,2450.584961 1104.293823,2577.897217 
	C1104.294312,2579.856934 1103.975098,2581.816650 1103.702637,2584.958008 
	C1100.069336,2585.200195 1096.567505,2585.628174 1093.064331,2585.638428 
	C1005.761780,2585.893799 918.459167,2586.105713 831.156494,2586.322021 
	C825.218628,2586.336670 819.280701,2586.323730 812.581604,2586.323730 
	C810.253540,2583.669922 811.578430,2580.217041 812.828918,2576.798340 
	C838.368408,2506.969727 863.932434,2437.149658 889.456421,2367.315430 
	C905.181396,2324.291748 921.005798,2281.302979 936.368469,2238.150146 
	C938.647766,2231.748047 939.515747,2224.519775 939.464417,2217.685303 
	C939.382263,2206.758057 935.623413,2203.668213 924.925537,2203.659424 
	C894.930237,2203.634277 864.934875,2203.650635 834.939575,2203.650879 
	C831.683411,2203.650879 828.427246,2203.650879 824.057373,2203.650879 
	C824.686401,2199.093262 825.155273,2195.615234 825.647522,2192.140625 
	C831.176880,2153.112793 836.606323,2114.070557 842.269470,2075.062256 
	C848.596375,2031.481934 855.205139,1987.942383 861.502502,1944.357666 
	C862.354065,1938.463867 862.446533,1932.399170 862.233032,1926.437134 
	C862.118469,1923.236694 861.173950,1919.765991 859.605835,1916.978516 
	C856.076538,1910.704712 849.909912,1910.652832 846.437500,1916.866577 
	C844.022156,1921.188599 842.290466,1925.930176 840.584717,1930.605225 
	C821.015198,1984.241211 801.465759,2037.884766 781.996948,2091.557617 
	C755.733826,2163.961182 729.553162,2236.394775 703.317017,2308.808350 
	C699.245056,2320.047607 694.855591,2331.176514 691.016174,2342.493408 
	C688.673401,2349.399170 687.004089,2356.432617 689.641846,2363.902344 
	C692.844604,2372.972168 694.126526,2374.297607 703.865417,2374.318115 
	C729.861267,2374.372803 755.857239,2374.337646 781.853210,2374.338135 
	C788.788513,2374.338135 795.723816,2374.337891 802.786377,2374.337891 
	C803.326721,2376.344238 804.096375,2377.642090 803.929199,2378.805176 
	C794.036072,2447.636230 784.065735,2516.456543 773.973083,2586.173340 
	C770.862122,2586.410400 768.102722,2586.732422 765.336487,2586.811279 
	C755.413940,2587.094238 745.489197,2587.294922 735.565247,2587.527100 
	C733.567566,2587.573730 731.569946,2587.662598 729.572266,2587.662598 
	C663.915833,2587.669922 598.259399,2587.673340 532.602966,2587.652832 
	C530.013733,2587.652100 527.424683,2587.412842 523.673340,2587.227295 
	C523.673340,2583.475586 523.666565,2580.259766 523.674316,2577.043701 
	C523.892456,2486.411133 524.004272,2395.777832 524.375610,2305.145996 
	C524.569214,2257.879150 525.397156,2210.614502 525.579468,2163.347656 
	C525.653809,2144.079590 524.398926,2124.807617 524.405273,2105.537842 
	C524.421509,2056.667725 528.222900,2008.077881 538.320557,1960.207153 
	C552.585815,1892.578735 575.078674,1827.914795 609.369751,1767.592163 
	C626.233398,1737.926880 646.190979,1710.678589 670.662170,1686.895752 
	C701.524231,1656.902100 737.463318,1635.264282 779.480713,1625.279175 
	C827.937866,1613.764038 875.066467,1617.345703 919.494873,1641.777222 
	C946.086182,1656.400146 968.206360,1676.372314 987.515259,1699.530762 
	C1018.103577,1736.217041 1039.235596,1778.187500 1055.791016,1822.698486 
	C1073.108398,1869.257935 1083.935547,1917.444458 1091.355713,1966.404785 
	C1094.581421,1987.689087 1096.608398,2009.199829 1098.160400,2030.681396 
	C1100.096924,2057.486816 1101.085327,2084.363281 1102.280762,2111.218018 
	C1102.960083,2126.477295 1103.235718,2141.754150 1103.912354,2158.000977 
z" data-index="5" style="opacity: 1;"></path>
<path fill="#9AFEFD" opacity="1.000000" stroke="none" d="
M2472.000000,1979.675415 
	C2544.392334,1979.675415 2615.784668,1979.676147 2687.279297,1979.674805 
	C2687.279297,2066.106689 2687.279297,2151.009521 2687.279297,2236.655029 
	C2684.409424,2237.002930 2681.874512,2237.578125 2679.339844,2237.579102 
	C2569.030518,2237.627686 2458.718506,2238.040039 2348.413086,2237.371826 
	C2316.096924,2237.176270 2286.881592,2225.145752 2260.353516,2206.755127 
	C2225.822510,2182.816406 2199.585449,2151.332764 2177.860352,2115.831299 
	C2152.346191,2074.137939 2134.481934,2029.218140 2121.513672,1982.166992 
	C2113.031494,1951.392090 2106.783203,1920.184448 2102.875977,1888.587280 
	C2100.110596,1866.223022 2097.907959,1843.614014 2097.885010,1821.111816 
	C2097.561523,1502.847656 2097.654297,1184.583130 2097.646484,866.318604 
	C2097.646240,861.416687 2097.646240,856.514832 2097.646240,850.851990 
	C2102.068604,850.652161 2105.307129,850.380554 2108.545410,850.378479 
	C2151.869385,850.351013 2195.193359,850.361511 2238.517334,850.360840 
	C2240.183594,850.360840 2241.850586,850.370239 2243.515869,850.328796 
	C2247.954102,850.218262 2250.451904,852.041687 2250.281250,856.804871 
	C2250.174316,859.800171 2250.279541,862.802795 2250.279541,865.802124 
	C2250.280273,1171.735962 2250.238525,1477.669800 2250.331055,1783.603638 
	C2250.342773,1822.427002 2256.013916,1860.397339 2270.667236,1896.602539 
	C2279.208984,1917.707153 2290.314941,1937.347412 2306.647949,1953.593262 
	C2317.156494,1964.045654 2328.968018,1972.740479 2343.539551,1976.258667 
	C2352.140625,1978.335571 2361.170654,1979.430786 2370.023682,1979.527344 
	C2403.678955,1979.894653 2437.340576,1979.675415 2472.000000,1979.675415 
z" data-index="6"></path>
<path fill="#FEFEFE" opacity="1.000000" stroke="none" d="
M2895.805176,2237.671875 
	C2849.586914,2237.671875 2804.340088,2237.671875 2758.384033,2237.671875 
	C2758.384033,1966.956787 2758.384033,1697.225098 2758.384033,1426.899658 
	C2810.102783,1426.899658 2861.231934,1426.899658 2913.015137,1426.899658 
	C2913.015137,1696.993896 2913.015137,1966.736450 2913.015137,2237.671875 
	C2907.249023,2237.671875 2902.012695,2237.671875 2895.805176,2237.671875 
z" data-index="7"></path>
<path fill="#FCFCFC" opacity="1.000000" stroke="none" d="
M2855.775146,1023.944092 
	C2854.155762,1037.003174 2852.613770,1049.165527 2850.946533,1062.318237 
	C2858.949707,1062.318237 2866.812012,1062.292480 2874.674561,1062.324341 
	C2886.001953,1062.370239 2897.329590,1062.407959 2908.656250,1062.544434 
	C2917.395264,1062.649780 2919.317871,1064.265625 2922.562012,1072.391113 
	C2925.177246,1078.940674 2924.953369,1085.438843 2922.861084,1091.910400 
	C2909.077637,1134.546509 2895.169678,1177.142578 2881.375488,1219.775269 
	C2869.520996,1256.412476 2857.749268,1293.076416 2845.969971,1329.737793 
	C2839.375977,1350.261597 2832.935547,1370.835205 2826.210205,1391.315430 
	C2824.666748,1396.015381 2822.528320,1400.585449 2820.134766,1404.923462 
	C2817.429688,1409.826050 2812.244385,1409.821411 2809.356445,1404.937988 
	C2805.221436,1397.945557 2802.996826,1390.608032 2804.179688,1382.114868 
	C2809.525879,1343.741089 2814.566162,1305.324219 2819.589844,1266.906250 
	C2822.424561,1245.226196 2825.017822,1223.514526 2827.699707,1201.814575 
	C2827.854004,1200.567383 2827.827148,1199.297852 2827.906494,1197.552002 
	C2809.525635,1197.552002 2791.665527,1197.580200 2773.805420,1197.542847 
	C2759.853760,1197.513794 2751.990234,1188.413818 2754.783447,1174.617065 
	C2756.488037,1166.196655 2759.325439,1157.982422 2761.984863,1149.782837 
	C2773.249023,1115.055664 2784.717041,1080.394531 2795.960205,1045.660522 
	C2811.801025,996.723938 2827.479492,947.734863 2843.292725,898.789246 
	C2847.271484,886.473755 2851.470947,874.229126 2855.626465,861.971375 
	C2857.031250,857.827698 2858.650391,852.945923 2863.502686,852.645386 
	C2869.043945,852.302185 2871.311035,857.694885 2872.775879,861.858704 
	C2874.341797,866.309448 2875.116943,871.486328 2874.579346,876.155396 
	C2871.432373,903.477112 2867.826172,930.746338 2864.322510,958.026489 
	C2861.538330,979.705139 2858.678711,1001.374023 2855.775146,1023.944092 
z" data-index="8"></path>

</svg>